<svg width="72" height="74" viewBox="0 0 72 74" fill="none" xmlns="http://www.w3.org/2000/svg">
<path d="M0 32.9583H32V0.625H0V32.9583ZM8 8.70833H24V24.875H8V8.70833Z" fill="#001F3F"/>
<path d="M0 73.375H32V41.0417H0V73.375ZM8 49.125H24V65.2917H8V49.125Z" fill="#001F3F"/>
<path d="M40 0.625V32.9583H72V0.625H40ZM64 24.875H48V8.70833H64V24.875Z" fill="#001F3F"/>
<path d="M72 65.2917H64V73.375H72V65.2917Z" fill="#001F3F"/>
<path d="M48 41.0417H40V49.125H48V41.0417Z" fill="#001F3F"/>
<path d="M56 49.125H48V57.2083H56V49.125Z" fill="#001F3F"/>
<path d="M48 57.2083H40V65.2917H48V57.2083Z" fill="#001F3F"/>
<path d="M56 65.2917H48V73.375H56V65.2917Z" fill="#001F3F"/>
<path d="M64 57.2083H56V65.2917H64V57.2083Z" fill="#001F3F"/>
<path d="M64 41.0417H56V49.125H64V41.0417Z" fill="#001F3F"/>
<path d="M72 49.125H64V57.2083H72V49.125Z" fill="#001F3F"/>
</svg>
