<svg width="18" height="14" viewBox="0 0 18 14" fill="none" xmlns="http://www.w3.org/2000/svg">
<path fill-rule="evenodd" clip-rule="evenodd" d="M9.43641 3.30216C11.9235 3.30226 14.3155 4.22435 16.118 5.87783C16.2538 6.00548 16.4707 6.00387 16.6044 5.87422L17.9019 4.61075C17.9696 4.54499 18.0073 4.45591 18.0068 4.36323C18.0062 4.27055 17.9674 4.18191 17.8989 4.11691C13.1679 -0.257802 5.70418 -0.257802 0.973168 4.11691C0.904636 4.18186 0.865752 4.27047 0.86512 4.36316C0.864488 4.45584 0.902161 4.54494 0.969801 4.61075L2.26767 5.87422C2.40126 6.00407 2.61839 6.00568 2.75404 5.87783C4.55678 4.22424 6.94906 3.30215 9.43641 3.30216ZM9.43306 7.52243C10.7904 7.52235 12.0993 8.03409 13.1054 8.95822C13.2415 9.08937 13.4558 9.08653 13.5885 8.95181L14.8758 7.6325C14.9436 7.5633 14.9812 7.46942 14.9802 7.37187C14.9792 7.27432 14.9397 7.18124 14.8706 7.11345C11.8067 4.2226 7.06199 4.2226 3.99816 7.11345C3.92895 7.18124 3.88947 7.27437 3.88856 7.37195C3.88765 7.46953 3.9254 7.5634 3.99333 7.6325L5.28024 8.95181C5.41289 9.08653 5.62726 9.08937 5.76334 8.95822C6.76879 8.0347 8.07664 7.523 9.43306 7.52243ZM11.9575 10.316C11.9594 10.4213 11.9223 10.5229 11.855 10.5967L9.67838 13.0514C9.61458 13.1236 9.52758 13.1642 9.43681 13.1642C9.34604 13.1642 9.25905 13.1236 9.19524 13.0514L7.01822 10.5967C6.95096 10.5229 6.91397 10.4212 6.91596 10.3159C6.91796 10.2105 6.95877 10.1108 7.02875 10.0402C8.41885 8.72628 10.4548 8.72628 11.8449 10.0402C11.9148 10.1108 11.9556 10.2106 11.9575 10.316Z" fill="#001F3F"/>
</svg>
